<svg xmlns:dc="http://purl.org/dc/elements/1.1/" xmlns:cc="http://creativecommons.org/ns#" xmlns:rdf="http://www.w3.org/1999/02/22-rdf-syntax-ns#" xmlns:svg="http://www.w3.org/2000/svg" xmlns="http://www.w3.org/2000/svg" xmlns:sodipodi="http://sodipodi.sourceforge.net/DTD/sodipodi-0.dtd" xmlns:inkscape="http://www.inkscape.org/namespaces/inkscape" version="1.1" id="Layer_1" x="0px" y="0px" viewBox="0 0 28 34" xml:space="preserve" inkscape:version="0.91 r13725" sodipodi:docname="yii_logo_light.svg"><g transform="matrix(0.50580295,0,0,-0.50580295,-72.888583,177.03598)" inkscape:label="yii_logo_4 cveta" id="g4175"><g id="g4177"><g clip-path="url(#clipPath4181)" id="g4179"><g transform="translate(183.9946,331.1367)" id="g4185"><path inkscape:connector-curvature="0" id="path4187" style="fill:#000;fill-opacity:1;fill-rule:evenodd;stroke:none" d="M 0,0 C -3.088,8.913 5.938,18.468 13.363,18.753 17.812,16.432 21.632,10.337 21.441,2.066 20.858,-8.124 13.648,-16.906 5.802,-24.997 5.364,-15.131 3.27,-8.842 0,0"/></g><g transform="translate(166.4893,282.874)" id="g4189"><path inkscape:connector-curvature="0" id="path4191" style="fill:#000;fill-opacity:1;fill-rule:evenodd;stroke:none" d="m 0,0 c -1.242,9.949 2.797,18.436 6.806,23.611 1.905,2.43 3.369,4.647 4.484,6.689 2.106,-0.912 7.767,-3.882 10.886,-8.704 C 21.723,14.601 16.554,1.871 0,0"/></g><g transform="translate(160.2344,320.6611)" id="g4193"><path inkscape:connector-curvature="0" id="path4195" style="fill:#000;fill-opacity:1;fill-rule:evenodd;stroke:none" d="M 0,0 C -13.175,3.685 -16.425,15.259 -15.837,23.043 -3.043,28.229 10.726,22.917 18.676,11.845 24.25,4.085 27.74,-5.864 28.448,-14.547 24.624,-9.5 19.794,-6.576 13.642,-4.286 9.434,-2.721 5.547,-1.684 0,0"/></g><g transform="translate(459.5723,301.9727)" id="g4197"/><g transform="translate(262.3789,302.3389)" id="g4201"/><g transform="translate(259.4429,340.7461)" id="g4205"/><g transform="translate(240.5635,301.4668)" id="g4209"/></g></g></g></svg>